<?xml version="1.0" encoding="UTF-8" standalone="no"?>
<svg
   id="Layer_1"
   data-name="Layer 1"
   viewBox="0 0 498.9 78.17"
   version="1.1"
   sodipodi:docname="ETH_GHE_logo.svg"
   width="498.89999"
   height="78.169998"
   inkscape:version="1.3 (0e150ed, 2023-07-21)"
   xmlns:inkscape="http://www.inkscape.org/namespaces/inkscape"
   xmlns:sodipodi="http://sodipodi.sourceforge.net/DTD/sodipodi-0.dtd"
   xmlns="http://www.w3.org/2000/svg"
   xmlns:svg="http://www.w3.org/2000/svg">
  <sodipodi:namedview
     id="namedview47"
     pagecolor="#ffffff"
     bordercolor="#000000"
     borderopacity="0.25"
     inkscape:showpageshadow="2"
     inkscape:pageopacity="0.0"
     inkscape:pagecheckerboard="0"
     inkscape:deskcolor="#d1d1d1"
     inkscape:zoom="1.5638907"
     inkscape:cx="235.95"
     inkscape:cy="25.896951"
     inkscape:window-width="2560"
     inkscape:window-height="1312"
     inkscape:window-x="1920"
     inkscape:window-y="25"
     inkscape:window-maximized="1"
     inkscape:current-layer="Layer_1" />
  <defs
     id="defs3">
    <style
       id="style1">&#10;      .cls-1 {&#10;        fill: url(#linear-gradient);&#10;      }&#10;&#10;      .cls-1, .cls-2, .cls-3 {&#10;        stroke-width: 0px;&#10;      }&#10;&#10;      .cls-4 {&#10;        isolation: isolate;&#10;      }&#10;&#10;      .cls-3 {&#10;        fill: #fff;&#10;      }&#10;    </style>
    <linearGradient
       id="linear-gradient"
       x1="556.59003"
       y1="281.84"
       x2="1188.65"
       y2="281.84"
       gradientTransform="matrix(0.17,0,0,1,-85.15,-256.24)"
       gradientUnits="userSpaceOnUse">
      <stop
         offset="0"
         stop-color="#bf181a"
         id="stop1" />
      <stop
         offset=".35"
         stop-color="#873671"
         id="stop2" />
      <stop
         offset="1"
         stop-color="#457ec1"
         id="stop3" />
    </linearGradient>
  </defs>
  <rect
     style="fill:#ffffff;stroke:#ffffff;stroke-width:3.90633"
     id="rect47"
     width="493.73532"
     height="72.989792"
     x="3.1498196"
     y="3.1498184" />
  <g
     id="g9"
     transform="translate(15.5187,13.984148)">
    <g
       id="g8">
      <path
         class="cls-2"
         d="m 393.11,31.48 c -1.18,5.84 -5.69,6.14 -6.58,6.14 -2.55,0 -4.07,-1.47 -4.07,-3.93 0,-0.56 0.08,-1.33 0.23,-2.09 l 2.79,-13.9 v -0.05 c 0,0 -3.28,0 -3.28,0 l -2.84,14.25 -0.04,0.2 c -0.12,0.64 -0.24,1.25 -0.24,2.05 0,3.83 2.51,6.4 6.26,6.4 2.74,0 4.94,-0.9 6.55,-2.68 l -0.43,2.35 v 0.06 c 0,0 3.24,0 3.24,0 l 4.49,-22.57 v -0.05 c 0,0 -3.33,0 -3.33,0 l -2.75,13.84 z"
         id="path3"
         style="stroke-width:0px" />
      <path
         class="cls-2"
         d="m 415.57,17.36 c -2.55,0 -4.8,1.04 -6.22,2.87 l 0.51,-2.54 v -0.05 c 0,0 -3.24,0 -3.24,0 l -4.49,22.57 v 0.06 c 0,0 3.29,0 3.29,0 l 2.75,-13.84 c 0.7,-3.55 3.43,-6.13 6.49,-6.13 1.31,0 2.35,0.52 3.16,1.58 l 0.03,0.04 2.68,-2.4 -0.03,-0.03 c -1.24,-1.43 -2.85,-2.12 -4.93,-2.12 z"
         id="path4"
         style="stroke-width:0px" />
      <polygon
         class="cls-2"
         points="376.39,20.41 376.4,20.4 376.96,17.64 361.64,17.64 361.08,20.51 361.08,20.56 372.32,20.56 357.35,37.49 357.34,37.5 356.78,40.26 372.73,40.26 373.3,37.34 361.37,37.34 "
         id="polygon4"
         style="stroke-width:0px" />
      <polygon
         class="cls-2"
         points="424.23,40.26 428.72,17.64 425.48,17.64 420.95,40.21 420.93,40.26 "
         id="polygon5"
         style="stroke-width:0px" />
      <path
         class="cls-2"
         d="m 465.63,17.36 c -2.71,0 -4.83,0.83 -6.45,2.54 l 2.56,-12.6 h -3.3 l -6.62,32.96 h 3.3 l 2.75,-13.84 c 1.18,-5.84 5.73,-6.13 6.63,-6.13 2.52,0 4.02,1.47 4.02,3.93 0,0.56 -0.09,1.32 -0.23,2.09 l -2.8,13.95 h 3.29 L 471.67,26 c 0.14,-0.76 0.23,-1.4 0.23,-2.25 0,-3.83 -2.53,-6.4 -6.27,-6.4 z"
         id="path5"
         style="stroke-width:0px" />
      <path
         class="cls-2"
         d="m 443.78,17.36 c -5.98,0 -10.17,4.21 -11.52,11.55 -0.24,1.23 -0.33,2.6 -0.33,3.48 0,5.02 3.05,8.14 7.95,8.14 2.85,0 5.46,-1.09 7.53,-3.16 l 0.03,-0.03 -1.9,-2.32 -0.03,-0.04 -0.03,0.04 c -1.75,1.84 -3.32,2.59 -5.41,2.59 -2.34,0 -4.84,-1.39 -4.84,-5.3 0,-1.22 0.15,-2.24 0.36,-3.38 0.35,-1.92 1.15,-4.6 2.91,-6.46 1.4,-1.45 3.07,-2.18 4.95,-2.18 1.88,0 3.19,0.7 4.39,2.49 l 0.03,0.05 2.42,-2.04 0.03,-0.03 -0.03,-0.04 c -1.65,-2.32 -3.67,-3.36 -6.53,-3.36 z"
         id="path6"
         style="stroke-width:0px" />
      <polygon
         class="cls-2"
         points="430.01,11.43 430.83,7.31 427.54,7.31 426.71,11.43 "
         id="polygon6"
         style="stroke-width:0px" />
      <polygon
         class="cls-2"
         points="397.96,11.43 398.78,7.31 395.5,7.31 394.66,11.43 "
         id="polygon7"
         style="stroke-width:0px" />
      <polygon
         class="cls-2"
         points="389.18,11.43 389.99,7.31 386.71,7.31 385.87,11.43 "
         id="polygon8"
         style="stroke-width:0px" />
    </g>
    <polygon
       class="cls-2"
       points="295.05,27.5 296.54,20.08 281.71,20.08 282.6,15.55 306.12,15.55 301.16,40.27 311.46,40.27 316.42,15.55 325.07,15.55 320.11,40.27 330.41,40.27 332.95,27.5 340.37,27.5 337.82,40.27 348.12,40.27 354.75,7.31 344.45,7.31 341.84,20.08 334.43,20.08 337.03,7.31 274,7.31 267.38,40.27 292.51,40.27 294.16,32.03 279.32,32.03 280.22,27.5 "
       id="polygon9"
       style="stroke-width:0px" />
  </g>
  <g
     id="g47"
     transform="translate(15.5187,13.984148)">
    <g
       class="cls-4"
       id="g10"
       style="isolation:isolate">
      <path
         class="cls-2"
         d="m 135.13,5.53 v 2.48 c 0,0.57 -0.11,1.1 -0.34,1.61 -0.23,0.51 -0.53,0.95 -0.91,1.31 -0.38,0.38 -0.83,0.68 -1.36,0.89 -0.53,0.21 -1.08,0.32 -1.65,0.32 -0.57,0 -1.16,-0.11 -1.67,-0.32 -0.53,-0.21 -0.97,-0.51 -1.36,-0.89 -0.38,-0.38 -0.68,-0.8 -0.91,-1.31 -0.21,-0.51 -0.34,-1.04 -0.34,-1.61 V 4.16 c 0,-0.57 0.11,-1.1 0.34,-1.61 0.21,-0.51 0.53,-0.95 0.91,-1.31 0.38,-0.38 0.83,-0.68 1.36,-0.89 0.53,-0.21 1.08,-0.32 1.67,-0.32 0.51,0 1,0.08 1.46,0.23 0.47,0.15 0.87,0.38 1.23,0.66 0.36,0.28 0.66,0.61 0.91,1 0.25,0.38 0.44,0.8 0.55,1.23 h -1.63 c -0.19,-0.53 -0.49,-0.93 -0.91,-1.21 -0.42,-0.28 -0.95,-0.42 -1.61,-0.42 -0.36,0 -0.7,0.06 -1.02,0.19 -0.32,0.13 -0.57,0.32 -0.8,0.55 -0.23,0.23 -0.4,0.51 -0.53,0.83 -0.13,0.32 -0.19,0.68 -0.19,1.06 v 3.83 c 0,0.38 0.06,0.74 0.19,1.06 0.13,0.32 0.3,0.59 0.53,0.83 0.23,0.24 0.51,0.4 0.8,0.55 0.32,0.13 0.66,0.19 1.02,0.19 0.4,0 0.78,-0.06 1.12,-0.19 0.34,-0.13 0.64,-0.32 0.87,-0.55 0.23,-0.23 0.42,-0.51 0.57,-0.83 0.13,-0.32 0.21,-0.68 0.21,-1.06 V 6.92 h -2.16 v -1.4 h 3.64 v 0.02 z"
         id="path9"
         style="stroke-width:0px" />
    </g>
    <g
       class="cls-4"
       id="g11"
       style="isolation:isolate">
      <path
         class="cls-2"
         d="m 144.26,10.52 v 1.44 H 137.7 V 0.17 h 1.69 v 10.35 z"
         id="path10"
         style="stroke-width:0px" />
    </g>
    <g
       class="cls-4"
       id="g14"
       style="isolation:isolate">
      <path
         class="cls-2"
         d="m 150.16,0.02 c 0.61,0 1.19,0.11 1.72,0.34 0.53,0.23 1,0.53 1.38,0.93 0.4,0.4 0.7,0.85 0.93,1.38 0.23,0.53 0.34,1.1 0.34,1.72 v 3.39 c 0,0.59 -0.11,1.16 -0.34,1.69 -0.23,0.53 -0.53,1 -0.93,1.38 -0.4,0.4 -0.85,0.7 -1.38,0.93 -0.53,0.23 -1.1,0.34 -1.72,0.34 -0.62,0 -1.16,-0.11 -1.69,-0.34 -0.53,-0.23 -0.97,-0.55 -1.38,-0.93 -0.41,-0.38 -0.7,-0.85 -0.93,-1.38 -0.23,-0.53 -0.34,-1.1 -0.34,-1.69 V 4.39 c 0,-0.59 0.11,-1.16 0.34,-1.69 0.23,-0.53 0.53,-1 0.91,-1.38 0.38,-0.4 0.85,-0.7 1.38,-0.93 0.55,-0.25 1.12,-0.36 1.72,-0.36 z m 2.65,4.36 c 0,-0.42 -0.06,-0.8 -0.21,-1.14 -0.13,-0.34 -0.32,-0.64 -0.55,-0.89 -0.23,-0.25 -0.51,-0.44 -0.83,-0.59 -0.32,-0.15 -0.68,-0.21 -1.04,-0.21 -0.36,0 -0.72,0.06 -1.04,0.21 -0.32,0.15 -0.59,0.34 -0.83,0.59 -0.23,0.25 -0.42,0.55 -0.55,0.89 -0.13,0.34 -0.21,0.72 -0.21,1.14 v 3.39 c 0,0.42 0.06,0.8 0.21,1.14 0.13,0.34 0.32,0.64 0.55,0.89 0.23,0.25 0.51,0.44 0.83,0.59 0.32,0.15 0.66,0.21 1.04,0.21 0.38,0 0.72,-0.06 1.04,-0.21 0.32,-0.15 0.59,-0.34 0.83,-0.59 0.23,-0.25 0.42,-0.55 0.55,-0.89 0.13,-0.34 0.21,-0.72 0.21,-1.14 z"
         id="path11"
         style="stroke-width:0px" />
      <path
         class="cls-2"
         d="M 157.26,11.96 V 0.17 h 4.49 c 0.47,0 0.89,0.06 1.29,0.17 0.4,0.11 0.76,0.28 1.06,0.53 0.3,0.23 0.55,0.55 0.72,0.93 0.17,0.38 0.28,0.87 0.28,1.44 0,0.38 -0.04,0.72 -0.15,1.02 -0.11,0.3 -0.21,0.55 -0.36,0.76 -0.15,0.21 -0.32,0.4 -0.53,0.55 -0.19,0.15 -0.4,0.25 -0.61,0.32 0.23,0.04 0.47,0.15 0.7,0.3 0.23,0.15 0.44,0.34 0.64,0.57 0.2,0.23 0.34,0.51 0.47,0.85 0.13,0.32 0.19,0.7 0.19,1.12 0,0.57 -0.08,1.06 -0.28,1.46 -0.17,0.42 -0.42,0.76 -0.72,1.02 -0.3,0.28 -0.66,0.47 -1.06,0.59 -0.4,0.13 -0.85,0.19 -1.31,0.19 h -4.81 v -0.02 z m 1.69,-10.39 v 3.66 h 2.54 c 0.23,0 0.44,-0.04 0.68,-0.11 0.21,-0.06 0.4,-0.19 0.57,-0.34 0.17,-0.15 0.3,-0.36 0.4,-0.61 0.11,-0.25 0.15,-0.55 0.15,-0.93 0,-0.28 -0.04,-0.53 -0.15,-0.74 -0.11,-0.21 -0.23,-0.38 -0.4,-0.53 -0.17,-0.13 -0.36,-0.23 -0.57,-0.3 -0.21,-0.06 -0.44,-0.11 -0.68,-0.11 0,0 -2.54,0 -2.54,0 z m 2.9,9.02 c 0.23,0 0.44,-0.04 0.66,-0.13 0.22,-0.09 0.4,-0.21 0.55,-0.38 0.17,-0.17 0.3,-0.36 0.4,-0.59 0.1,-0.23 0.15,-0.49 0.15,-0.76 0,-0.36 -0.04,-0.68 -0.15,-0.95 -0.11,-0.27 -0.23,-0.51 -0.4,-0.7 -0.17,-0.19 -0.34,-0.34 -0.55,-0.42 -0.21,-0.08 -0.42,-0.15 -0.66,-0.15 h -2.9 v 4.09 h 2.9 z"
         id="path12"
         style="stroke-width:0px" />
      <path
         class="cls-2"
         d="m 166.62,11.96 c 0.08,-0.34 0.23,-0.83 0.4,-1.44 0.17,-0.61 0.38,-1.29 0.59,-2.03 0.21,-0.74 0.44,-1.52 0.7,-2.35 0.23,-0.83 0.47,-1.61 0.7,-2.37 0.21,-0.76 0.42,-1.46 0.61,-2.1 0.19,-0.64 0.34,-1.14 0.44,-1.52 h 1.8 c 0,0 0.06,0.21 0.17,0.55 0.11,0.34 0.23,0.8 0.38,1.33 0.15,0.53 0.34,1.16 0.55,1.86 0.21,0.7 0.4,1.4 0.61,2.14 0.21,0.74 0.4,1.44 0.61,2.14 0.21,0.7 0.38,1.31 0.55,1.86 0.15,0.55 0.28,1 0.38,1.33 0.11,0.34 0.15,0.53 0.17,0.55 h -1.8 l -0.72,-2.67 h -3.64 l -0.72,2.71 c 0,0 -1.8,0 -1.8,0 z m 2.88,-4.17 h 2.94 l -1.48,-5.61 z"
         id="path13"
         style="stroke-width:0px" />
      <path
         class="cls-2"
         d="m 183.62,10.52 v 1.44 h -6.56 V 0.17 h 1.69 v 10.35 z"
         id="path14"
         style="stroke-width:0px" />
    </g>
    <g
       class="cls-4"
       id="g17"
       style="isolation:isolate">
      <path
         class="cls-2"
         d="m 129.67,19.67 v 5.21 h 3.75 v -5.21 h 1.69 v 11.79 h -1.69 v -5.21 h -3.75 v 5.21 h -1.69 V 19.67 Z"
         id="path15"
         style="stroke-width:0px" />
      <path
         class="cls-2"
         d="m 145.34,19.67 v 1.44 h -4.93 v 3.75 h 4.47 v 1.38 h -4.47 v 3.75 h 4.93 v 1.44 h -6.65 V 19.64 h 6.65 v 0.04 z"
         id="path16"
         style="stroke-width:0px" />
      <path
         class="cls-2"
         d="m 147.24,31.46 c 0.08,-0.34 0.23,-0.83 0.4,-1.44 0.17,-0.61 0.38,-1.29 0.59,-2.03 0.21,-0.74 0.44,-1.52 0.7,-2.35 0.23,-0.83 0.47,-1.61 0.7,-2.37 0.21,-0.76 0.42,-1.46 0.61,-2.1 0.19,-0.64 0.34,-1.14 0.44,-1.52 h 1.8 c 0,0 0.06,0.21 0.17,0.55 0.11,0.34 0.23,0.8 0.38,1.33 0.15,0.53 0.34,1.16 0.55,1.86 0.21,0.7 0.4,1.4 0.61,2.14 0.21,0.74 0.4,1.44 0.61,2.14 0.21,0.7 0.38,1.31 0.55,1.86 0.15,0.55 0.28,1 0.38,1.33 0.1,0.33 0.15,0.53 0.17,0.55 h -1.8 l -0.72,-2.71 h -3.64 l -0.72,2.71 h -1.8 v 0.04 z m 2.86,-4.17 h 2.94 l -1.46,-5.61 z"
         id="path17"
         style="stroke-width:0px" />
    </g>
    <g
       class="cls-4"
       id="g18"
       style="isolation:isolate">
      <path
         class="cls-2"
         d="m 164.96,30.02 v 1.44 H 158.4 V 19.67 h 1.69 v 10.35 z"
         id="path18"
         style="stroke-width:0px" />
    </g>
    <g
       class="cls-4"
       id="g20"
       style="isolation:isolate">
      <path
         class="cls-2"
         d="m 165.22,21.13 v -1.44 h 8.66 v 1.44 h -3.51 v 10.35 h -1.69 V 21.13 h -3.45 z"
         id="path19"
         style="stroke-width:0px" />
      <path
         class="cls-2"
         d="m 178.26,19.67 v 5.21 h 3.75 v -5.21 h 1.69 v 11.79 h -1.69 v -5.21 h -3.75 v 5.21 h -1.69 V 19.67 Z"
         id="path20"
         style="stroke-width:0px" />
    </g>
    <g
       class="cls-4"
       id="g31"
       style="isolation:isolate">
      <path
         class="cls-2"
         d="m 134.6,39.59 v 1.44 h -4.93 v 3.75 h 4.47 v 1.38 h -4.47 v 3.75 h 4.93 v 1.44 h -6.63 V 39.56 h 6.63 v 0.04 z"
         id="path21"
         style="stroke-width:0px" />
      <path
         class="cls-2"
         d="m 137.67,39.59 h 1.72 l 3.96,8.19 v -8.19 h 1.69 v 11.79 h -1.69 l -3.98,-8.19 v 8.19 h -1.69 V 39.59 Z"
         id="path22"
         style="stroke-width:0px" />
      <path
         class="cls-2"
         d="m 156.71,44.93 v 2.48 c 0,0.57 -0.11,1.1 -0.34,1.61 -0.23,0.51 -0.53,0.95 -0.91,1.31 -0.38,0.38 -0.83,0.68 -1.36,0.89 -0.53,0.21 -1.08,0.32 -1.65,0.32 -0.57,0 -1.16,-0.11 -1.67,-0.32 -0.53,-0.21 -0.97,-0.51 -1.36,-0.89 -0.38,-0.38 -0.68,-0.8 -0.91,-1.31 -0.21,-0.51 -0.34,-1.04 -0.34,-1.61 v -3.83 c 0,-0.57 0.11,-1.1 0.34,-1.61 0.21,-0.51 0.53,-0.95 0.91,-1.31 0.38,-0.38 0.83,-0.68 1.36,-0.89 0.53,-0.21 1.08,-0.32 1.67,-0.32 0.51,0 1,0.08 1.46,0.23 0.47,0.15 0.87,0.38 1.23,0.66 0.36,0.28 0.66,0.61 0.91,1 0.25,0.39 0.44,0.8 0.55,1.23 h -1.61 c -0.19,-0.53 -0.49,-0.93 -0.91,-1.21 -0.42,-0.28 -0.95,-0.42 -1.61,-0.42 -0.36,0 -0.7,0.06 -1.02,0.19 -0.32,0.13 -0.57,0.32 -0.8,0.55 -0.23,0.23 -0.4,0.51 -0.53,0.83 -0.13,0.32 -0.19,0.68 -0.19,1.06 v 3.83 c 0,0.38 0.06,0.74 0.19,1.06 0.13,0.32 0.3,0.59 0.53,0.83 0.23,0.24 0.51,0.4 0.8,0.55 0.32,0.13 0.66,0.19 1.02,0.19 0.4,0 0.78,-0.06 1.12,-0.19 0.34,-0.13 0.64,-0.32 0.87,-0.55 0.23,-0.23 0.42,-0.51 0.57,-0.83 0.13,-0.32 0.21,-0.68 0.21,-1.06 v -1.06 h -2.16 v -1.4 h 3.62 z"
         id="path23"
         style="stroke-width:0px" />
      <path
         class="cls-2"
         d="m 161.6,39.59 v 11.79 h -1.69 V 39.59 Z"
         id="path24"
         style="stroke-width:0px" />
      <path
         class="cls-2"
         d="m 165.18,39.59 h 1.72 l 3.96,8.19 v -8.19 h 1.69 v 11.79 h -1.69 l -3.98,-8.19 v 8.19 h -1.69 V 39.59 Z"
         id="path25"
         style="stroke-width:0px" />
      <path
         class="cls-2"
         d="m 182.75,39.59 v 1.44 h -4.93 v 3.75 h 4.47 v 1.38 h -4.47 v 3.75 h 4.93 v 1.44 h -6.63 V 39.56 h 6.63 v 0.04 z"
         id="path26"
         style="stroke-width:0px" />
      <path
         class="cls-2"
         d="m 192.45,39.59 v 1.44 h -4.93 v 3.75 h 4.47 v 1.38 h -4.47 v 3.75 h 4.93 v 1.44 h -6.63 V 39.56 h 6.63 v 0.04 z"
         id="path27"
         style="stroke-width:0px" />
      <path
         class="cls-2"
         d="m 199.67,39.59 c 0.47,0 0.91,0.06 1.33,0.21 0.44,0.15 0.83,0.36 1.14,0.64 0.34,0.28 0.59,0.64 0.8,1.06 0.19,0.42 0.3,0.91 0.3,1.44 0,0.42 -0.06,0.8 -0.19,1.14 -0.13,0.34 -0.3,0.66 -0.51,0.93 -0.21,0.27 -0.47,0.51 -0.76,0.68 -0.3,0.19 -0.59,0.32 -0.93,0.42 0.08,0.04 0.23,0.17 0.4,0.38 0.17,0.19 0.36,0.53 0.57,1 0.15,0.32 0.32,0.7 0.53,1.14 0.21,0.44 0.4,0.87 0.59,1.25 0.19,0.4 0.34,0.74 0.49,1.04 0.13,0.3 0.21,0.44 0.21,0.44 h -1.86 c -0.06,-0.15 -0.19,-0.38 -0.34,-0.72 -0.15,-0.34 -0.32,-0.68 -0.51,-1.06 -0.19,-0.38 -0.36,-0.76 -0.55,-1.14 -0.17,-0.38 -0.32,-0.7 -0.44,-0.95 -0.11,-0.21 -0.21,-0.4 -0.34,-0.57 -0.11,-0.15 -0.21,-0.28 -0.34,-0.4 -0.13,-0.12 -0.25,-0.19 -0.38,-0.19 h -1.67 v 5.04 h -1.69 V 39.58 h 4.15 v 0.02 z m -2.44,5.36 h 2.43 c 0.25,0 0.51,-0.04 0.74,-0.13 0.23,-0.09 0.42,-0.21 0.59,-0.36 0.17,-0.17 0.3,-0.38 0.4,-0.64 0.1,-0.26 0.15,-0.55 0.15,-0.89 0,-0.68 -0.19,-1.16 -0.55,-1.5 -0.36,-0.32 -0.8,-0.49 -1.33,-0.49 h -2.43 v 4 0 z"
         id="path28"
         style="stroke-width:0px" />
      <path
         class="cls-2"
         d="M 208.29,39.59 V 51.38 H 206.6 V 39.59 Z"
         id="path29"
         style="stroke-width:0px" />
      <path
         class="cls-2"
         d="m 211.84,39.59 h 1.72 l 3.96,8.19 v -8.19 h 1.69 v 11.79 h -1.69 l -3.98,-8.19 v 8.19 h -1.69 v -11.79 0 z"
         id="path30"
         style="stroke-width:0px" />
      <path
         class="cls-2"
         d="m 230.88,44.93 v 2.48 c 0,0.57 -0.11,1.1 -0.34,1.61 -0.23,0.51 -0.53,0.95 -0.91,1.31 -0.38,0.38 -0.83,0.68 -1.36,0.89 -0.53,0.21 -1.08,0.32 -1.65,0.32 -0.57,0 -1.16,-0.11 -1.67,-0.32 -0.53,-0.21 -0.97,-0.51 -1.36,-0.89 -0.38,-0.38 -0.68,-0.8 -0.91,-1.31 -0.21,-0.51 -0.34,-1.04 -0.34,-1.61 v -3.83 c 0,-0.57 0.11,-1.1 0.34,-1.61 0.21,-0.51 0.53,-0.95 0.91,-1.31 0.38,-0.38 0.83,-0.68 1.36,-0.89 0.53,-0.21 1.08,-0.32 1.67,-0.32 0.51,0 1,0.08 1.46,0.23 0.47,0.15 0.87,0.38 1.23,0.66 0.36,0.28 0.66,0.61 0.91,1 0.25,0.38 0.44,0.8 0.55,1.23 h -1.61 c -0.19,-0.53 -0.49,-0.93 -0.91,-1.21 -0.42,-0.28 -0.95,-0.42 -1.61,-0.42 -0.36,0 -0.7,0.06 -1.02,0.19 -0.32,0.13 -0.57,0.32 -0.8,0.55 -0.23,0.23 -0.4,0.51 -0.53,0.83 -0.13,0.32 -0.19,0.68 -0.19,1.06 v 3.83 c 0,0.38 0.06,0.74 0.19,1.06 0.13,0.32 0.3,0.59 0.53,0.83 0.23,0.24 0.51,0.4 0.8,0.55 0.32,0.13 0.66,0.19 1.02,0.19 0.4,0 0.78,-0.06 1.12,-0.19 0.34,-0.13 0.64,-0.32 0.87,-0.55 0.23,-0.23 0.42,-0.51 0.57,-0.83 0.13,-0.32 0.21,-0.68 0.21,-1.06 v -1.06 h -2.16 v -1.4 h 3.62 z"
         id="path31"
         style="stroke-width:0px" />
    </g>
    <g
       class="cls-4"
       id="g32"
       style="isolation:isolate">
      <path
         class="cls-2"
         d="m 5.55,22.59 v 7.35 c 0,5.67 1.16,9.91 3.49,12.7 2.33,2.82 5.55,4.21 9.63,4.21 3.66,0 6.54,-1.02 8.58,-3.05 2.05,-2.03 3.07,-4.53 3.07,-7.47 h 5.48 c 0,1.78 -0.34,3.56 -1.04,5.36 -0.7,1.8 -1.72,3.51 -3.05,5.12 -1.33,1.61 -3.15,2.92 -5.46,3.9 -2.31,0.97 -4.93,1.46 -7.88,1.46 C 12.7,52.17 8.21,50.26 4.92,46.45 1.65,42.64 0,37.16 0,30.02 V 22.44 C 0,15.37 1.67,9.85 5,5.91 8.32,1.97 12.81,0 18.44,0 c 2.82,0 5.36,0.49 7.62,1.46 2.27,0.97 4.09,2.29 5.46,3.94 1.38,1.65 2.43,3.43 3.18,5.38 0.74,1.95 1.1,3.94 1.1,5.99 h -5.48 c 0,-2.99 -1.06,-5.63 -3.2,-7.96 C 24.98,6.5 22.08,5.34 18.44,5.34 14.52,5.34 11.41,6.82 9.06,9.79 6.71,12.75 5.55,17.01 5.55,22.6 Z"
         id="path32"
         style="stroke-width:0px" />
    </g>
    <g
       class="cls-4"
       id="g33"
       style="isolation:isolate">
      <path
         class="cls-2"
         d="M 90.84,51.09 H 85.72 V 0.97 h 5.12 z"
         id="path33"
         style="stroke-width:0px" />
    </g>
    <rect
       class="cls-2"
       x="85.519997"
       y="0.38"
       width="5.29"
       height="50.82"
       id="rect33"
       style="stroke-width:0px" />
    <rect
       class="cls-2"
       x="87.550003"
       y="0.38"
       width="29.280001"
       height="4.8699999"
       id="rect34"
       style="stroke-width:0px" />
    <rect
       class="cls-2"
       x="90.790001"
       y="46.330002"
       width="26.129999"
       height="4.8699999"
       id="rect35"
       style="stroke-width:0px" />
    <rect
       class="cls-2"
       x="71.879997"
       y="0.38"
       width="5.29"
       height="22.23"
       id="rect36"
       style="stroke-width:0px" />
    <rect
       class="cls-2"
       x="42.540001"
       y="28.309999"
       width="5.29"
       height="22.870001"
       id="rect37"
       style="stroke-width:0px" />
    <rect
       class="cls-2"
       x="30.34"
       y="28.309999"
       width="5.46"
       height="8.0500002"
       id="rect38"
       style="stroke-width:0px" />
    <g
       id="g215">
      <path
         id="rect2970"
         class="cls-1"
         d="M 42.18,0.17 V 22.59 H 11.75 v 5.84 h 59.92 v 22.61 h 5.55 V 28.43 h 16.9 c 0.15,0 0.97,0.02 2.14,-0.38 1.25,-0.42 2.69,-1.36 3.83,-1.65 1.27,-0.34 1.93,0.23 3.09,1.44 0.53,0.55 1.12,1.12 1.82,1.5 0.57,0.3 1.16,0.44 1.84,0.36 0,0 0.19,0 0.47,-0.06 h 0.02 c 0.23,-0.06 0.55,-0.17 0.91,-0.4 0.85,-0.53 1.95,-1.65 3.03,-2.18 0.55,-0.28 1.08,-0.36 1.65,-0.25 0.59,0.13 1.12,0.42 1.82,0.8 0.68,0.36 1.42,0.7 2.27,0.78 0.85,0.06 1.76,-0.15 2.77,-0.74 0.04,-0.02 0.08,-0.04 0.13,-0.04 0,0 0.13,-0.04 0.36,-0.23 0.25,-0.19 0.57,-0.49 0.85,-0.83 0.28,-0.34 0.4,-0.55 0.47,-0.7 0.07,-0.15 0.06,-0.17 0.21,-0.34 0,0 -0.15,0 -0.38,0.02 -0.32,0.02 -0.49,0.06 -0.89,0.13 -0.36,0.04 -0.68,0.08 -1.04,0.04 -0.32,-0.02 -0.64,-0.11 -1,-0.19 -0.19,-0.11 -0.42,-0.25 -0.72,-0.53 -0.8,-0.78 -2.05,-2.52 -3.45,-3.6 -0.72,-0.55 -1.42,-0.85 -2.14,-0.83 -0.74,0.02 -1.4,0.38 -2.08,0.93 -1.44,1.19 -2.37,2.71 -3.41,2.63 v 0 c -0.08,0 -0.17,0 -0.32,-0.02 -0.36,-0.04 -0.8,-0.13 -1.29,-0.38 -0.49,-0.25 -0.91,-0.61 -1.38,-1.08 -0.44,-0.44 -0.89,-0.95 -1.36,-1.31 -0.49,-0.38 -1.02,-0.61 -1.67,-0.64 -0.66,-0.02 -1.4,0.17 -2.22,0.49 -1.72,0.66 -3.24,1.55 -4.4,1.44 H 71.86 V 11.05 H 69.38 V 12 h -0.25 v 0.74 H 68.3 v 2.88 h -1.06 v 4.91 H 66.82 V 14.9 H 65.87 V 9.03 c 0,-1.08 -0.78,-2.12 -1.93,-2.37 V 5.69 H 63.71 V 4.74 H 63.56 V 4.08 H 63.22 V 4.74 H 63.07 V 5.69 H 62.84 V 6.64 C 61.72,6.85 60.85,7.7 60.76,8.76 v 0 6.12 h -1.1 v 1.72 h -1.02 v -0.21 c 0,0 -0.02,-0.06 -0.02,-0.08 C 58.6,16.27 58.6,16.23 58.58,16.2 58.56,16.16 58.56,16.14 58.54,16.09 58.52,16.04 58.5,16.03 58.48,15.98 58.46,15.94 58.44,15.92 58.42,15.87 58.4,15.85 58.38,15.81 58.34,15.79 58.32,15.77 58.28,15.73 58.26,15.71 58.24,15.69 58.2,15.67 58.18,15.63 58.16,15.61 58.12,15.59 58.07,15.57 58.02,15.55 58.01,15.53 57.96,15.51 57.91,15.49 57.9,15.47 57.85,15.47 57.81,15.45 57.79,15.45 57.74,15.43 h -0.66 c -0.17,-0.47 -0.64,-1.86 -0.95,-2.79 l -0.47,1.27 h -2.58 v 1.52 h -4.34 v 0.93 c -0.15,0.49 -0.53,0.85 -1.02,0.95 V 0.15 h -5.55 v 0.02 z"
         style="fill:url(#linear-gradient);stroke-width:0px" />
    </g>
    <g
       class="cls-4"
       id="g46"
       style="isolation:isolate">
      <path
         class="cls-3"
         d="m 12.39,28.08 v -5.15 h 1.1 v 5.15 z"
         id="path38"
         style="fill:#ffffff;stroke-width:0px" />
      <path
         class="cls-3"
         d="m 16.6,28.08 v -5.15 h 1.1 v 5.15 z"
         id="path39"
         style="fill:#ffffff;stroke-width:0px" />
      <path
         class="cls-3"
         d="m 22.38,22.89 c 0.53,0 0.93,0.17 1.23,0.53 0.36,0.42 0.53,1.12 0.53,2.1 0,0.98 -0.17,1.67 -0.53,2.1 -0.3,0.36 -0.7,0.53 -1.23,0.53 -0.53,0 -0.95,-0.19 -1.27,-0.57 -0.32,-0.38 -0.49,-1.08 -0.49,-2.05 0,-0.97 0.17,-1.67 0.53,-2.1 0.3,-0.34 0.7,-0.53 1.23,-0.53 z m 0,0.82 c -0.13,0 -0.23,0.04 -0.34,0.11 -0.11,0.08 -0.17,0.21 -0.23,0.4 -0.06,0.25 -0.11,0.68 -0.11,1.29 0,0.61 0.04,1.02 0.11,1.25 0.06,0.23 0.15,0.38 0.23,0.44 0.11,0.08 0.21,0.11 0.34,0.11 0.13,0 0.23,-0.04 0.34,-0.11 0.11,-0.08 0.17,-0.21 0.23,-0.4 0.06,-0.25 0.11,-0.68 0.11,-1.29 0,-0.61 -0.04,-1.02 -0.11,-1.25 -0.06,-0.23 -0.15,-0.38 -0.23,-0.44 -0.08,-0.06 -0.21,-0.11 -0.34,-0.11 z"
         id="path40"
         style="fill:#ffffff;stroke-width:0px" />
      <path
         class="cls-3"
         d="m 27.14,28.08 v -5.15 h 1.1 v 5.15 z"
         id="path41"
         style="fill:#ffffff;stroke-width:0px" />
      <path
         class="cls-3"
         d="m 32.93,22.89 c 0.53,0 0.93,0.17 1.23,0.53 0.36,0.42 0.53,1.12 0.53,2.1 0,0.98 -0.17,1.67 -0.53,2.1 -0.3,0.36 -0.7,0.53 -1.23,0.53 -0.53,0 -0.95,-0.19 -1.27,-0.57 -0.32,-0.38 -0.49,-1.08 -0.49,-2.05 0,-0.97 0.17,-1.67 0.53,-2.1 0.3,-0.34 0.7,-0.53 1.23,-0.53 z m 0,0.82 c -0.13,0 -0.23,0.04 -0.34,0.11 -0.11,0.08 -0.17,0.21 -0.23,0.4 -0.06,0.25 -0.11,0.68 -0.11,1.29 0,0.61 0.04,1.02 0.11,1.25 0.06,0.23 0.15,0.38 0.23,0.44 0.11,0.08 0.21,0.11 0.34,0.11 0.13,0 0.23,-0.04 0.34,-0.11 0.11,-0.08 0.17,-0.21 0.23,-0.4 0.06,-0.25 0.11,-0.68 0.11,-1.29 0,-0.61 -0.04,-1.02 -0.11,-1.25 -0.06,-0.23 -0.15,-0.38 -0.23,-0.44 -0.08,-0.06 -0.21,-0.11 -0.34,-0.11 z"
         id="path42"
         style="fill:#ffffff;stroke-width:0px" />
      <path
         class="cls-3"
         d="m 39.26,22.89 c 0.53,0 0.93,0.17 1.23,0.53 0.36,0.42 0.53,1.12 0.53,2.1 0,0.98 -0.17,1.67 -0.53,2.1 -0.3,0.36 -0.7,0.53 -1.23,0.53 -0.53,0 -0.95,-0.19 -1.27,-0.57 -0.32,-0.38 -0.49,-1.08 -0.49,-2.05 0,-0.97 0.17,-1.67 0.53,-2.1 0.3,-0.34 0.7,-0.53 1.23,-0.53 z m 0,0.82 c -0.13,0 -0.23,0.04 -0.34,0.11 -0.11,0.08 -0.17,0.21 -0.23,0.4 -0.06,0.25 -0.11,0.68 -0.11,1.29 0,0.61 0.04,1.02 0.11,1.25 0.06,0.23 0.15,0.38 0.23,0.44 0.11,0.08 0.21,0.11 0.34,0.11 0.13,0 0.23,-0.04 0.34,-0.11 0.11,-0.08 0.17,-0.21 0.23,-0.4 0.06,-0.25 0.11,-0.68 0.11,-1.29 0,-0.61 -0.04,-1.02 -0.11,-1.25 -0.06,-0.23 -0.15,-0.38 -0.23,-0.44 -0.11,-0.06 -0.21,-0.11 -0.34,-0.11 z"
         id="path43"
         style="fill:#ffffff;stroke-width:0px" />
      <path
         class="cls-3"
         d="m 44.02,28.08 v -5.15 h 1.1 v 5.15 z"
         id="path44"
         style="fill:#ffffff;stroke-width:0px" />
      <path
         class="cls-3"
         d="m 48.23,28.08 v -5.15 h 1.1 v 5.15 z"
         id="path45"
         style="fill:#ffffff;stroke-width:0px" />
      <path
         class="cls-3"
         d="m 54.01,22.89 c 0.53,0 0.93,0.17 1.23,0.53 0.36,0.42 0.53,1.12 0.53,2.1 0,0.98 -0.17,1.67 -0.53,2.1 -0.3,0.36 -0.7,0.53 -1.23,0.53 -0.53,0 -0.95,-0.19 -1.27,-0.57 -0.32,-0.38 -0.49,-1.08 -0.49,-2.05 0,-0.97 0.17,-1.67 0.53,-2.1 0.3,-0.34 0.7,-0.53 1.23,-0.53 z m 0,0.82 c -0.13,0 -0.23,0.04 -0.34,0.11 -0.11,0.08 -0.17,0.21 -0.23,0.4 -0.06,0.25 -0.11,0.68 -0.11,1.29 0,0.61 0.04,1.02 0.11,1.25 0.06,0.23 0.15,0.38 0.23,0.44 0.11,0.08 0.21,0.11 0.34,0.11 0.13,0 0.23,-0.04 0.34,-0.11 0.11,-0.08 0.17,-0.21 0.23,-0.4 0.06,-0.25 0.11,-0.68 0.11,-1.29 0,-0.61 -0.04,-1.02 -0.11,-1.25 -0.06,-0.23 -0.15,-0.38 -0.23,-0.44 -0.08,-0.06 -0.21,-0.11 -0.34,-0.11 z"
         id="path46"
         style="fill:#ffffff;stroke-width:0px" />
    </g>
  </g>
</svg>
